<?xml version="1.0" encoding="UTF-8"?>
<svg id="Layer_2" data-name="Layer 2" xmlns="http://www.w3.org/2000/svg" viewBox="0 0 1259.37 1198.75">
  <defs>
    <style>
      .cls-1 {
        fill: white;
      }
    </style>
  </defs>
  <g id="Layer_1-2" data-name="Layer 1">
    <g>
      <polygon class="cls-1" points="1109.93 140.66 675.57 437.25 540.17 272.72 510.43 480.78 303.1 515.3 471.76 647.72 150.63 1058.04 587.89 761.42 723.27 925.92 753.01 717.85 960.34 683.33 791.73 550.96 1109.93 140.66"/>
      <path d="m1259.37,0l-577.7,394.47-162.84-197.87-36.67,256.56-255.65,42.57,200.51,157.41L0,1198.75l581.74-394.62,162.87,197.9,36.67-256.56,255.65-42.56-200.56-157.46L1259.37,0Zm-299.03,683.33l-207.33,34.52-29.74,208.07-135.38-164.5-437.27,296.62,321.13-410.32-168.66-132.41,207.33-34.52,29.74-208.07,135.41,164.53,434.35-296.59-318.19,410.3,168.61,132.37Z"/>
    </g>
  </g>
</svg>