<?xml version="1.0" encoding="UTF-8"?>
<svg id="Layer_2" data-name="Layer 2" xmlns="http://www.w3.org/2000/svg" viewBox="0 0 1283.39 1283.39">
  <defs>
    <style>
      .cls-1 {
        fill: none;
      }

      .cls-2 {
        fill: white;
      }
    </style>
  </defs>
  <g id="Layer_1-2" data-name="Layer 1">
    <g>
      <path class="cls-1" d="m1220.67,397.11c-31.65-74.82-76.96-142.02-134.67-199.73-57.71-57.71-124.91-103.02-199.73-134.66-77.46-32.76-159.75-49.38-244.58-49.38s-167.12,16.61-244.58,49.38c-74.82,31.65-142.02,76.96-199.73,134.66-57.71,57.71-103.02,124.91-134.66,199.73-32.76,77.46-49.38,159.75-49.38,244.58s16.61,167.12,49.38,244.58c31.65,74.82,76.96,142.02,134.66,199.73,57.71,57.71,124.91,103.02,199.73,134.67,77.46,32.76,159.75,49.38,244.58,49.38s167.12-16.61,244.58-49.38c74.82-31.65,142.02-76.96,199.73-134.67,57.71-57.71,103.02-124.91,134.67-199.73,32.76-77.46,49.38-159.75,49.38-244.58s-16.61-167.12-49.38-244.58Z"/>
      <g>
        <path class="cls-2" d="m428.07,738.74c12.46,28.01,29.95,53.04,51.97,74.37,22.02,21.34,47.47,37.91,75.64,49.27,29.17,11.76,59.99,17.38,91.6,16.7,31.62-.68,62.14-7.62,90.72-20.62,27.61-12.56,52.25-30.21,73.25-52.47,20.99-22.26,37.28-48.01,48.41-76.53,11.52-29.53,16.98-60.75,16.23-92.8-.76-32.05-7.68-63-20.58-92-12.46-28.01-29.95-53.04-51.97-74.37-22.02-21.34-47.47-37.91-75.64-49.27-29.17-11.76-59.99-17.37-91.6-16.7s-62.14,7.62-90.72,20.62c-27.61,12.56-52.25,30.21-73.25,52.47-20.99,22.26-37.28,48.01-48.41,76.53-11.52,29.53-16.98,60.75-16.23,92.8.76,32.05,7.68,63,20.58,92Zm.17-182.97c10.9-27.93,26.85-53.14,47.41-74.94,20.56-21.8,44.69-39.09,71.72-51.38,27.99-12.73,57.88-19.52,88.84-20.19,30.96-.67,61.14,4.83,89.7,16.35,27.59,11.12,52.51,27.35,74.07,48.25,21.57,20.9,38.69,45.4,50.89,72.83,12.63,28.4,19.41,58.71,20.15,90.09.74,31.38-4.61,61.95-15.89,90.87-10.9,27.93-26.85,53.14-47.41,74.94-20.56,21.8-44.69,39.09-71.72,51.38-27.99,12.73-57.88,19.52-88.84,20.19-30.96.67-61.14-4.83-89.7-16.35-27.58-11.12-52.51-27.35-74.07-48.25-21.57-20.9-38.69-45.4-50.89-72.83-12.63-28.4-19.41-58.71-20.15-90.09-.74-31.38,4.61-61.95,15.89-90.87Z"/>
        <path class="cls-2" d="m389.22,700.17c8.23,29.75,22.54,57.43,42.52,82.27,19.98,24.84,44.63,45.58,73.27,61.66,29.65,16.64,62.29,27.53,97.02,32.35,34.73,4.82,69.47,3.29,103.25-4.55,32.63-7.57,63-20.68,90.27-38.96,27.27-18.28,50.06-40.81,67.74-66.96,18.31-27.08,30.31-56.88,35.66-88.57,5.36-31.69,3.75-63.38-4.77-94.18-8.23-29.75-22.54-57.43-42.52-82.27-19.98-24.84-44.63-45.58-73.27-61.66-29.65-16.64-62.29-27.53-97.02-32.35s-69.47-3.29-103.25,4.55c-32.63,7.57-63,20.68-90.27,38.96-27.27,18.28-50.06,40.81-67.74,66.96-18.31,27.08-30.3,56.88-35.66,88.57-5.36,31.69-3.75,63.38,4.77,94.18Zm35.49-180.16c17.31-25.61,39.63-47.67,66.34-65.57,26.7-17.9,56.44-30.73,88.4-38.15,33.08-7.67,67.1-9.17,101.1-4.45,34.01,4.72,65.97,15.38,95,31.67,28.04,15.74,52.18,36.06,71.74,60.38,19.57,24.32,33.57,51.43,41.64,80.56,8.34,30.16,9.92,61.19,4.67,92.22-5.25,31.03-16.99,60.21-34.92,86.73-17.31,25.61-39.63,47.67-66.34,65.57-26.7,17.9-56.44,30.73-88.4,38.15-33.08,7.67-67.1,9.17-101.1,4.45-34.01-4.72-65.97-15.38-95-31.67-28.04-15.74-52.18-36.06-71.74-60.38-19.57-24.32-33.57-51.43-41.64-80.56-8.34-30.16-9.92-61.19-4.67-92.22,5.25-31.03,16.99-60.21,34.92-86.73Z"/>
        <path class="cls-2" d="m354.15,655.44c3.27,30.73,13.58,60.47,30.65,88.4,17.07,27.93,40.04,52.64,68.27,73.44,29.23,21.54,62.85,37.93,99.92,48.7,37.07,10.78,75.38,15.3,113.86,13.45,37.17-1.79,72.93-9.42,106.29-22.69,33.36-13.27,62.65-31.5,87.04-54.18,25.26-23.49,44.14-50.75,56.11-81.03,11.98-30.28,16.33-61.76,12.95-93.58-3.27-30.73-13.58-60.47-30.65-88.4-17.07-27.93-40.04-52.64-68.27-73.44-29.23-21.54-62.85-37.93-99.92-48.7-37.07-10.78-75.38-15.3-113.86-13.45-37.17,1.79-72.93,9.42-106.29,22.69-33.36,13.27-62.65,31.5-87.04,54.18-25.26,23.49-44.13,50.75-56.11,81.03-11.98,30.28-16.33,61.76-12.95,93.58Zm73.6-171.26c23.89-22.21,52.56-40.07,85.24-53.06,32.67-12.99,67.69-20.47,104.09-22.22,37.68-1.81,75.19,2.62,111.49,13.17,36.3,10.55,69.22,26.6,97.84,47.69,27.64,20.37,50.14,44.57,66.85,71.92,16.72,27.35,26.82,56.48,30.02,86.57,3.31,31.15-.95,61.98-12.68,91.63-11.73,29.65-30.21,56.35-54.94,79.34-23.89,22.22-52.56,40.07-85.24,53.06-32.67,12.99-67.69,20.47-104.09,22.22-37.68,1.81-75.19-2.62-111.49-13.17-36.3-10.55-69.22-26.6-97.84-47.69-27.64-20.37-50.14-44.57-66.85-71.92-16.72-27.35-26.82-56.48-30.02-86.57-3.31-31.15.95-61.98,12.68-91.63,11.73-29.65,30.21-56.35,54.94-79.34Z"/>
        <path class="cls-2" d="m324.4,605.29c-2.35,30.83,3.19,61.91,16.48,92.38,13.29,30.47,33.66,58.79,60.54,84.18,27.83,26.29,61.45,48.26,99.93,65.31,38.48,17.05,79.53,28.16,121.99,33.02,41.02,4.69,81.62,3.38,120.69-3.89,39.07-7.27,74.63-20.14,105.7-38.24,32.17-18.75,58.09-42.32,77.03-70.06,18.95-27.74,29.79-57.99,32.22-89.91,2.35-30.83-3.19-61.91-16.48-92.38-13.29-30.47-33.66-58.79-60.54-84.18-27.83-26.29-61.45-48.26-99.93-65.31-38.48-17.05-79.53-28.16-121.99-33.02-41.02-4.69-81.62-3.38-120.69,3.89-39.07,7.27-74.63,20.14-105.7,38.24-32.17,18.75-58.09,42.32-77.03,70.06-18.95,27.74-29.79,57.99-32.23,89.91Zm113.58-155.88c30.42-17.73,65.25-30.33,103.51-37.45,38.26-7.12,78.02-8.4,118.18-3.81,41.58,4.76,81.77,15.63,119.45,32.33,37.69,16.7,70.61,38.21,97.86,63.95,26.32,24.86,46.26,52.6,59.28,82.44,13.02,29.84,18.45,60.27,16.14,90.46-2.39,31.25-13,60.87-31.56,88.04-18.55,27.16-43.93,50.24-75.43,68.6-30.42,17.73-65.25,30.33-103.51,37.45-38.26,7.12-78.02,8.4-118.18,3.81-41.58-4.76-81.77-15.63-119.45-32.33-37.69-16.7-70.61-38.21-97.86-63.95-26.32-24.86-46.26-52.6-59.28-82.44-13.02-29.84-18.45-60.27-16.14-90.46,2.39-31.25,13-60.87,31.56-88.04,18.55-27.16,43.93-50.24,75.43-68.6Z"/>
        <path class="cls-2" d="m301.52,550.75c-8.52,29.95-8.45,61.53.21,93.84,8.66,32.31,25.49,63.74,50,93.42,25.38,30.72,57.93,58.2,96.75,81.68,38.82,23.47,81.59,41.54,127.12,53.7,43.97,11.74,88.66,17.51,132.81,17.13,44.15-.38,85.55-6.87,123.04-19.31,38.82-12.88,71.72-31.59,97.81-55.61,26.08-24.03,43.78-51.93,52.61-82.95,8.52-29.95,8.45-61.53-.21-93.84-8.66-32.31-25.49-63.74-50-93.42-25.38-30.72-57.93-58.2-96.75-81.67-38.82-23.47-81.59-41.54-127.12-53.7-43.97-11.74-88.66-17.51-132.81-17.13-44.15.38-85.55,6.87-123.04,19.31-38.82,12.88-71.72,31.59-97.81,55.61-26.08,24.03-43.78,51.93-52.61,82.95Zm154.36-133.79c36.71-12.18,77.25-18.54,120.49-18.91,43.24-.37,86.99,5.28,130.05,16.77,44.58,11.9,86.46,29.6,124.47,52.58,38.02,22.99,69.89,49.9,94.74,79.97,24,29.05,40.47,59.83,48.96,91.48,8.49,31.65,8.56,62.56.21,91.89-8.64,30.36-25.97,57.69-51.52,81.22-25.54,23.53-57.76,41.85-95.77,54.46-36.71,12.18-77.25,18.54-120.49,18.91-43.24.37-86.99-5.28-130.05-16.77-44.58-11.9-86.46-29.6-124.47-52.58-38.02-22.99-69.89-49.9-94.74-79.97-24-29.05-40.47-59.83-48.96-91.48-8.49-31.65-8.55-62.56-.21-91.89,8.64-30.36,25.97-57.69,51.52-81.22,25.54-23.53,57.76-41.85,95.77-54.46Z"/>
        <path class="cls-2" d="m287.02,493.06c-15.11,28.02-21.12,59.12-17.87,92.45,3.25,33.33,15.59,67.2,36.69,100.68,21.84,34.66,52.16,67.38,90.11,97.23,37.95,29.86,81.26,55.08,128.74,74.96,45.85,19.2,93.64,32.64,142.02,39.93,48.39,7.3,94.94,8.09,138.36,2.35,44.96-5.94,84.58-18.65,117.75-37.79,33.18-19.13,57.93-43.54,73.57-72.55,15.11-28.02,21.12-59.12,17.87-92.45-3.25-33.33-15.59-67.2-36.69-100.68-21.84-34.66-52.16-67.38-90.11-97.23-37.95-29.86-81.26-55.08-128.74-74.96-45.85-19.2-93.64-32.64-142.02-39.93-48.38-7.3-94.94-8.09-138.36-2.35-44.96,5.94-84.58,18.65-117.75,37.79-33.18,19.13-57.93,43.54-73.57,72.55Zm194.72-104.95c42.52-5.62,88.1-4.84,135.49,2.3,47.38,7.15,94.17,20.3,139.07,39.1,46.48,19.46,88.89,44.16,126.06,73.4,37.16,29.24,66.85,61.27,88.23,95.21,20.66,32.78,32.74,65.95,35.92,98.59,3.18,32.64-2.71,63.1-17.5,90.53-15.31,28.4-39.55,52.3-72.04,71.04-32.49,18.74-71.28,31.19-115.3,37-42.52,5.62-88.11,4.84-135.49-2.3-47.38-7.15-94.17-20.3-139.07-39.1-46.48-19.46-88.89-44.16-126.06-73.4-37.16-29.24-66.85-61.27-88.23-95.21-20.66-32.78-32.74-65.95-35.92-98.59-3.18-32.64,2.71-63.1,17.5-90.53,15.31-28.4,39.55-52.3,72.04-71.04,32.49-18.74,71.28-31.19,115.3-37Z"/>
        <path class="cls-2" d="m282.27,433.73c-21.94,24.97-34.52,54.56-37.4,87.94-2.88,33.39,4.09,68.89,20.72,105.52,17.21,37.93,44.07,75.41,79.84,111.4,35.76,35.99,78.29,68.35,126.4,96.17,46.47,26.87,96.16,48.4,147.7,63.99,51.54,15.59,102.32,24.45,150.94,26.34,50.34,1.96,96.15-3.68,136.14-16.76,39.99-13.08,71.79-32.82,94.5-58.67,21.94-24.97,34.52-54.56,37.4-87.94,2.88-33.39-4.09-68.89-20.72-105.52-17.21-37.93-44.07-75.41-79.84-111.4-35.76-35.99-78.29-68.35-126.4-96.17-46.47-26.87-96.16-48.4-147.7-63.99-51.54-15.59-102.32-24.45-150.94-26.34-50.34-1.96-96.15,3.68-136.14,16.76-39.99,13.08-71.79,32.82-94.5,58.67Zm233.31-69.55c47.61,1.85,97.34,10.53,147.81,25.8,50.47,15.26,99.13,36.35,144.63,62.66,47.11,27.24,88.75,58.92,123.77,94.17,35.02,35.25,61.33,71.95,78.18,109.09,16.28,35.87,23.1,70.63,20.28,103.33-2.82,32.69-15.14,61.67-36.62,86.12-22.24,25.31-53.37,44.64-92.54,57.45-39.17,12.81-84.02,18.33-133.31,16.42-47.61-1.85-97.34-10.53-147.81-25.79-50.47-15.26-99.13-36.35-144.63-62.66-47.11-27.24-88.75-58.92-123.77-94.17-35.02-35.25-61.32-71.95-78.18-109.09-16.28-35.87-23.1-70.63-20.28-103.33,2.82-32.69,15.14-61.67,36.62-86.12,22.24-25.31,53.37-44.64,92.54-57.45,39.17-12.81,84.02-18.33,133.31-16.42Z"/>
        <path class="cls-2" d="m288.53,374.48c-28.82,20.78-48.3,47.73-57.89,80.11-9.59,32.38-8.81,68.55,2.31,107.51,11.52,40.34,33.68,81.92,65.87,123.58,32.19,41.66,72.48,80.91,119.76,116.66,45.66,34.53,95.88,64.36,149.27,88.66,53.39,24.3,107.25,41.85,160.09,52.15,54.71,10.67,105.92,13.07,152.2,7.13,46.29-5.94,84.89-19.86,114.73-41.37,28.82-20.78,48.3-47.73,57.89-80.11,9.59-32.38,8.81-68.55-2.31-107.51-11.52-40.34-33.68-81.92-65.87-123.58-32.19-41.66-72.48-80.91-119.76-116.66-45.66-34.53-95.89-64.36-149.27-88.66-53.39-24.3-107.25-41.85-160.09-52.15-54.71-10.67-105.92-13.07-152.2-7.13-46.29,5.94-84.89,19.86-114.73,41.37Zm268.72-27.98c51.74,10.09,104.48,27.27,156.76,51.07,52.28,23.8,101.46,53.01,146.17,86.82,46.29,35.01,85.74,73.44,117.26,114.24,31.52,40.8,53.22,81.51,64.5,121,10.89,38.15,11.65,73.57,2.26,105.28-9.39,31.71-28.46,58.1-56.68,78.45-29.22,21.07-67.01,34.69-112.34,40.51-45.33,5.81-95.47,3.47-149.04-6.98-51.74-10.09-104.48-27.27-156.76-51.07-52.28-23.8-101.46-53.01-146.17-86.82-46.29-35.01-85.74-73.44-117.26-114.24-31.52-40.8-53.22-81.51-64.5-121-10.89-38.15-11.65-73.57-2.26-105.28,9.39-31.71,28.46-58.1,56.68-78.45,29.22-21.07,67.01-34.69,112.34-40.51,45.33-5.81,95.47-3.47,149.04,6.98Z"/>
        <path class="cls-2" d="m306.81,317.21c-35.55,15.46-62.06,38.62-78.8,68.84-16.74,30.22-22.87,65.98-18.22,106.28,4.82,41.73,21.05,86.52,48.23,133.14,27.18,46.61,63.7,92.27,108.53,135.69,43.3,41.94,92.5,80.04,146.23,113.24,53.73,33.2,109.28,59.83,165.11,79.16,57.8,20.01,113.38,31.26,165.17,33.45,51.79,2.19,96.72-4.82,133.52-20.82,35.55-15.46,62.06-38.62,78.8-68.84,16.74-30.22,22.87-65.98,18.22-106.28-4.82-41.73-21.05-86.52-48.23-133.14-27.18-46.61-63.7-92.27-108.53-135.69-43.3-41.94-92.5-80.03-146.23-113.24-53.73-33.2-109.28-59.83-165.11-79.16-57.8-20.01-113.38-31.26-165.17-33.45-51.79-2.19-96.72,4.82-133.52,20.82Zm299.44,19.11c54.67,18.92,109.07,45,161.68,77.52,52.61,32.51,100.79,69.82,143.19,110.88,43.9,42.51,79.65,87.21,106.27,132.86,26.62,45.65,42.51,89.51,47.23,130.37,4.56,39.46-1.44,74.48-17.84,104.07-16.39,29.6-42.36,52.28-77.16,67.42-36.03,15.67-80.02,22.53-130.74,20.39-50.72-2.14-105.14-13.17-161.73-32.75-54.67-18.92-109.07-45-161.68-77.52-52.61-32.51-100.79-69.82-143.19-110.88-43.9-42.51-79.65-87.21-106.27-132.86-26.62-45.65-42.51-89.51-47.23-130.37-4.56-39.46,1.44-74.48,17.84-104.07,16.4-29.6,42.36-52.28,77.16-67.42,36.03-15.67,80.02-22.53,130.74-20.39,50.72,2.14,105.14,13.16,161.73,32.75Z"/>
        <path class="cls-2" d="m337.86,263.99c-41.88,9.05-75.36,27.26-99.51,54.11-24.15,26.85-37.76,61.01-40.44,101.5-2.78,41.93,6.34,88.86,27.09,139.49,20.75,50.63,51.9,101.93,92.58,152.47,39.29,48.82,85.78,94.88,138.16,136.91,52.38,42.03,108.03,77.9,165.39,106.63,59.39,29.74,118.03,50.48,174.28,61.63,56.25,11.15,106.76,12.05,150.12,2.68,41.88-9.05,75.36-27.26,99.51-54.11,24.15-26.85,37.76-61.01,40.44-101.5,2.78-41.93-6.34-88.86-27.09-139.49-20.75-50.63-51.9-101.93-92.58-152.47-39.29-48.82-85.78-94.88-138.16-136.91-52.38-42.03-108.03-77.9-165.39-106.63-59.39-29.74-118.03-50.48-174.28-61.63-56.25-11.15-106.76-12.05-150.12-2.68Zm323.97,70.82c56.17,28.13,110.66,63.26,161.96,104.41,51.3,41.16,96.82,86.26,135.29,134.06,39.83,49.49,70.33,99.72,90.65,149.3,20.32,49.58,29.25,95.53,26.53,136.59-2.63,39.66-15.95,73.1-39.6,99.4-23.65,26.3-56.43,44.13-97.44,52.99-42.45,9.18-91.91,8.29-147-2.63-55.09-10.92-112.5-31.22-170.65-60.34-56.17-28.13-110.66-63.26-161.96-104.41-51.3-41.16-96.82-86.26-135.29-134.07-39.83-49.49-70.33-99.72-90.65-149.3-20.32-49.58-29.25-95.53-26.53-136.59,2.63-39.65,15.95-73.1,39.6-99.39,23.65-26.3,56.43-44.13,97.44-52.99,42.45-9.18,91.91-8.29,147,2.63,55.09,10.92,112.5,31.22,170.65,60.34Z"/>
        <path class="cls-2" d="m382.1,216.96c-47.57,1.64-87.72,13.76-119.33,36.01-31.61,22.25-53.08,53.52-63.83,92.94-11.13,40.81-10.21,88.61,2.73,142.07s37.13,109.39,71.89,166.23c33.58,54.9,75.55,108.34,124.76,158.82,49.21,50.48,103.18,95.48,160.41,133.73,59.25,39.6,119.41,70.2,178.81,90.95,59.4,20.75,114.49,30.41,163.75,28.71,47.57-1.64,87.72-13.76,119.33-36.01,31.61-22.25,53.08-53.52,63.83-92.94,11.13-40.81,10.21-88.61-2.73-142.07-12.94-53.46-37.13-109.39-71.89-166.23-33.58-54.9-75.55-108.34-124.76-158.82-49.21-50.48-103.18-95.48-160.41-133.73-59.25-39.6-119.41-70.2-178.81-90.95-59.4-20.75-114.49-30.41-163.75-28.71Zm340.83,126c56.03,37.45,108.88,81.51,157.07,130.95,48.19,49.44,89.3,101.76,122.18,155.52,34.04,55.65,57.72,110.42,70.39,162.77,12.67,52.35,13.57,99.16,2.67,139.12-10.53,38.6-31.56,69.22-62.51,91.01-30.95,21.79-70.27,33.66-116.85,35.27-48.23,1.67-102.17-7.79-160.34-28.11-58.17-20.32-117.08-50.28-175.09-89.06-56.04-37.45-108.88-81.51-157.08-130.95-48.19-49.44-89.3-101.76-122.18-155.52-34.04-55.65-57.72-110.42-70.39-162.77-12.67-52.35-13.57-99.16-2.67-139.12,10.53-38.6,31.56-69.22,62.51-91.01,30.95-21.79,70.27-33.66,116.85-35.27,48.22-1.67,102.17,7.79,160.34,28.11,58.17,20.32,117.08,50.28,175.09,89.06Z"/>
        <path class="cls-2" d="m439.59,178.34c-52.37-6.64-98.64-1.68-137.52,14.74-38.88,16.43-68.41,43.49-87.78,80.44-20.05,38.26-28.27,85.49-24.43,140.39,3.84,54.9,19.52,114.17,46.59,176.19,26.15,59.9,61.77,119.81,105.88,178.07,44.11,58.26,94.48,111.94,149.72,159.55,57.19,49.29,117.12,89.87,178.11,120.62,61,30.75,119.42,49.83,173.64,56.71,52.37,6.64,98.64,1.68,137.52-14.74,38.88-16.43,68.41-43.49,87.78-80.44,20.05-38.26,28.27-85.49,24.43-140.39-3.84-54.9-19.52-114.17-46.59-176.19-26.15-59.9-61.77-119.81-105.88-178.07-44.11-58.26-94.48-111.94-149.72-159.55-57.19-49.29-117.12-89.87-178.11-120.62-61-30.75-119.42-49.83-173.64-56.71Zm348.64,183.27c54.09,46.62,103.42,99.18,146.61,156.24,43.2,57.06,78.08,115.72,103.68,174.37,26.51,60.72,41.85,118.76,45.62,172.52,3.76,53.76-4.28,100.01-23.92,137.47-18.97,36.18-47.89,62.69-85.96,78.77-38.07,16.09-83.38,20.94-134.66,14.44-53.09-6.73-110.29-25.42-170.03-55.53-59.73-30.11-118.41-69.85-174.41-118.11-54.09-46.62-103.42-99.18-146.61-156.24-43.19-57.06-78.08-115.72-103.68-174.37-26.51-60.72-41.85-118.76-45.62-172.52-3.76-53.76,4.28-100.01,23.92-137.47,18.96-36.18,47.89-62.68,85.96-78.77,38.07-16.09,83.38-20.94,134.66-14.44,53.09,6.73,110.29,25.42,170.03,55.53,59.73,30.11,118.41,69.85,174.41,118.11Z"/>
        <path class="cls-2" d="m509.95,150.28c-56.02-15.64-107.61-18.78-153.32-9.36-45.71,9.42-83.25,30.95-111.57,63.98-29.32,34.2-47.43,79.28-53.82,134.01-6.39,54.73-.67,115.83,16.99,181.6,17.05,63.53,44.47,128.71,81.5,193.75,37.02,65.04,81.79,126.65,133.04,183.12,53.07,58.47,110.81,108.84,171.62,149.72,60.81,40.87,121.05,69.81,179.06,86,56.02,15.64,107.61,18.79,153.32,9.36,45.71-9.43,83.25-30.95,111.57-63.98,29.32-34.2,47.43-79.28,53.82-134.01,6.39-54.73.67-115.83-16.99-181.6-17.06-63.53-44.47-128.72-81.5-193.75-37.02-65.04-81.79-126.65-133.04-183.12-53.07-58.47-110.81-108.84-171.62-149.72-60.81-40.87-121.05-69.81-179.06-86Zm346.13,241.02c50.19,55.3,94.02,115.63,130.28,179.32,36.26,63.69,63.11,127.52,79.81,189.73,17.29,64.4,22.88,124.23,16.63,177.82-6.25,53.6-23.98,97.75-52.69,131.23-27.73,32.34-64.49,53.42-109.26,62.65-44.77,9.23-95.28,6.15-150.14-9.16-56.79-15.85-115.78-44.18-175.33-84.21-59.55-40.03-116.09-89.35-168.05-146.6-50.19-55.3-94.02-115.63-130.28-179.32-36.26-63.69-63.11-127.52-79.81-189.73-17.29-64.4-22.88-124.23-16.63-177.82,6.25-53.6,23.98-97.75,52.69-131.23,27.73-32.34,64.49-53.42,109.26-62.65,44.77-9.23,95.28-6.15,150.14,9.16,56.79,15.85,115.78,44.18,175.33,84.21,59.55,40.03,116.09,89.35,168.05,146.6Z"/>
        <path class="cls-2" d="m592.35,134.87c-58.29-25.13-114.13-37.19-165.96-35.84-51.84,1.34-97.07,16.02-134.43,43.63-38.68,28.58-67.2,69.84-84.75,122.63-17.55,52.79-23.08,113.95-16.45,181.79,6.4,65.52,23.83,134.48,51.79,204.96,27.96,70.48,65.06,138.93,110.25,203.44,46.79,66.8,100.25,126.43,158.91,177.25,58.65,50.81,118.99,89.77,179.34,115.78,58.29,25.13,114.12,37.19,165.96,35.84,51.84-1.34,97.07-16.02,134.43-43.63,38.68-28.58,67.2-69.84,84.74-122.63,17.55-52.79,23.08-113.95,16.45-181.79-6.4-65.52-23.83-134.48-51.79-204.96-27.96-70.48-65.06-138.93-110.25-203.44-46.79-66.8-100.25-126.43-158.91-177.25-58.65-50.81-118.99-89.77-179.34-115.78Zm332.24,297.47c44.25,63.18,80.57,130.2,107.96,199.22,27.39,69.02,44.45,136.55,50.72,200.71,6.49,66.42,1.07,126.31-16.11,178.01-17.18,51.69-45.1,92.1-82.98,120.08-36.59,27.03-80.88,41.41-131.64,42.72-50.76,1.32-105.44-10.49-162.52-35.09-59.09-25.47-118.17-63.62-175.61-113.38-57.44-49.76-109.79-108.15-155.6-173.56-44.25-63.18-80.57-130.2-107.96-199.22-27.38-69.02-44.45-136.55-50.72-200.71-6.49-66.42-1.07-126.31,16.11-178.01,17.18-51.69,45.1-92.1,82.98-120.08,36.59-27.03,80.88-41.41,131.64-42.72,50.77-1.32,105.44,10.49,162.52,35.09,59.09,25.47,118.17,63.62,175.61,113.38,57.44,49.76,109.79,108.15,155.6,173.56Z"/>
        <path class="cls-2" d="m685.48,134c-58.93-34.87-117.71-56.44-174.69-64.12-56.98-7.68-109.31-1.08-155.52,19.62-47.85,21.43-87,57.11-116.39,106.05-29.39,48.94-47.25,108.21-53.08,176.17-5.63,65.64.13,136.58,17.13,210.84,17,74.26,44.38,148.11,81.38,219.5,38.31,73.91,85.31,141.92,139.68,202.15,54.38,60.23,112.89,109.07,173.9,145.17,58.93,34.87,117.7,56.44,174.69,64.12,56.98,7.68,109.31,1.08,155.52-19.62,47.84-21.43,87-57.11,116.39-106.05,29.39-48.94,47.24-108.21,53.08-176.17,5.63-65.64-.13-136.58-17.13-210.84-17-74.26-44.38-148.11-81.38-219.5-38.31-73.91-85.31-141.92-139.68-202.15-54.38-60.23-112.89-109.07-173.9-145.17Zm306.16,350.64c36.23,69.9,63.04,142.22,79.69,214.94,16.65,72.73,22.29,142.19,16.78,206.46-5.71,66.54-23.2,124.58-51.98,172.51-28.78,47.93-67.12,82.87-113.97,103.85-45.25,20.27-96.49,26.73-152.29,19.21-55.8-7.52-113.36-28.64-171.06-62.78-59.74-35.35-117.03-83.17-170.28-142.15-53.25-58.98-99.27-125.57-136.78-197.94-36.23-69.9-63.05-142.22-79.69-214.94-16.65-72.72-22.29-142.19-16.77-206.46,5.71-66.54,23.2-124.58,51.98-172.51,28.78-47.93,67.12-82.86,113.97-103.85,45.25-20.27,96.49-26.73,152.29-19.21,55.8,7.52,113.36,28.64,171.06,62.78,59.74,35.35,117.03,83.17,170.28,142.15,53.25,58.98,99.27,125.57,136.78,197.94Z"/>
        <path class="cls-2" d="m787.57,149.32c-57.76-44.57-117.91-76.02-178.78-93.48-60.87-17.46-119.4-20.04-173.96-7.68-56.49,12.8-106.22,41.14-147.82,84.23-41.6,43.09-72.58,98.37-92.07,164.28-18.83,63.66-26.21,134.52-21.94,210.61,4.27,76.09,19.99,153.57,46.7,230.3,27.66,79.44,65.96,154.58,113.84,223.33,47.88,68.75,102.48,127.01,162.28,173.16,57.76,44.57,117.91,76.02,178.78,93.48,60.87,17.46,119.4,20.04,173.96,7.68,56.49-12.8,106.22-41.14,147.82-84.23,41.6-43.09,72.58-98.36,92.07-164.28,18.83-63.67,26.21-134.53,21.94-210.61-4.27-76.09-19.99-153.57-46.7-230.3-27.66-79.44-65.96-154.58-113.84-223.33-47.88-68.75-102.48-127.01-162.28-173.16Zm267.35,398.48c26.16,75.13,41.55,151,45.73,225.51,4.19,74.51-3.04,143.9-21.48,206.24-19.09,64.54-49.42,118.66-90.16,160.86-40.74,42.2-89.44,69.95-144.74,82.48-53.42,12.1-110.74,9.57-170.35-7.52-59.61-17.09-118.51-47.89-175.07-91.53-58.55-45.18-112.01-102.23-158.9-169.56-46.89-67.33-84.4-140.9-111.48-218.68-26.16-75.13-41.55-151-45.73-225.51-4.19-74.51,3.04-143.9,21.48-206.24,19.09-64.54,49.42-118.66,90.16-160.86,40.74-42.2,89.43-69.95,144.74-82.48,53.42-12.1,110.74-9.57,170.35,7.52,59.61,17.09,118.51,47.89,175.07,91.53,58.55,45.18,112.01,102.23,158.9,169.56,46.89,67.33,84.4,140.9,111.48,218.68Z"/>
        <path class="cls-2" d="m896.31,182.13c-54.6-53.92-114.35-95.34-177.59-123.1-63.24-27.76-126.78-40.47-188.87-37.77-64.28,2.79-124.17,22.07-178,57.28-53.83,35.21-98.39,84.27-132.44,145.8-32.89,59.43-54.64,127.93-64.64,203.6-10,75.67-7.76,154.71,6.67,234.91,14.94,83.04,42.35,163.69,81.48,239.71,39.13,76.02,87.63,142.88,144.16,198.71,54.6,53.92,114.35,95.34,177.59,123.1,63.24,27.76,126.78,40.47,188.87,37.77,64.28-2.79,124.17-22.07,178-57.28,53.83-35.21,98.39-84.27,132.45-145.8,32.89-59.43,54.64-127.93,64.64-203.6,10-75.67,7.76-154.71-6.67-234.91-14.94-83.04-42.35-163.68-81.48-239.71-39.13-76.02-87.63-142.88-144.16-198.71Zm215.66,438.85c14.13,78.53,16.33,155.92,6.53,230.03-9.8,74.11-31.09,141.19-63.3,199.38-33.34,60.24-76.97,108.27-129.69,142.76-52.72,34.49-111.36,53.36-174.3,56.09-60.79,2.64-123.02-9.8-184.95-36.99-61.93-27.19-120.44-67.74-173.9-120.54-55.35-54.66-102.84-120.13-141.16-194.58-38.32-74.45-65.16-153.42-79.79-234.72-14.13-78.53-16.33-155.92-6.53-230.03,9.8-74.11,31.09-141.19,63.3-199.38,33.34-60.24,76.97-108.27,129.69-142.76,52.72-34.49,111.36-53.36,174.3-56.09,60.79-2.64,123.02,9.8,184.95,36.99,61.93,27.19,120.44,67.74,173.9,120.54,55.35,54.66,102.84,120.13,141.16,194.58,38.32,74.45,65.16,153.42,79.79,234.72Z"/>
        <path class="cls-2" d="m1008.97,233.32c-49.34-62.58-106.73-113.75-170.57-152.07-63.84-38.32-130.92-61.87-199.38-69.99-70.88-8.41-140.13.17-205.83,25.5-65.7,25.33-123.92,65.9-173.06,120.58-47.45,52.81-84.47,116.5-110.02,189.28-25.55,72.79-38.34,151.01-38.03,232.5.33,84.37,14.76,168.55,42.91,250.22,28.15,81.66,68.32,155.92,119.41,220.72,49.34,62.58,106.73,113.75,170.57,152.07,63.84,38.32,130.92,61.87,199.38,69.99,70.88,8.41,140.13-.17,205.83-25.5,65.7-25.33,123.92-65.9,173.06-120.58,47.45-52.81,84.47-116.5,110.01-189.29,25.55-72.79,38.34-151.01,38.03-232.5-.33-84.37-14.76-168.55-42.91-250.22-28.15-81.66-68.32-155.92-119.41-220.72Zm151.31,469.63c.31,79.79-12.22,156.39-37.24,227.67-25.02,71.28-61.26,133.64-107.73,185.36-48.11,53.54-105.12,93.26-169.46,118.07-64.34,24.81-132.15,33.21-201.54,24.98-67.03-7.95-132.72-31.02-195.24-68.54-62.52-37.53-118.72-87.63-167.03-148.91-50.02-63.44-89.36-136.16-116.92-216.13s-41.7-162.4-42.02-245.01c-.31-79.79,12.22-156.39,37.24-227.67,25.02-71.28,61.26-133.64,107.73-185.36,48.1-53.54,105.12-93.26,169.46-118.07,64.34-24.81,132.15-33.21,201.54-24.98,67.03,7.95,132.72,31.02,195.24,68.54,62.52,37.53,118.72,87.63,167.03,148.91,50.02,63.44,89.36,136.16,116.92,216.13,27.56,79.97,41.7,162.4,42.02,245.01Z"/>
        <path class="cls-2" d="m1122.38,303.31c-41.92-70.2-94.84-130.55-157.31-179.38-62.46-48.83-131.32-83.66-204.66-103.55C684.48-.21,607.04-3.79,530.27,9.75c-76.78,13.54-148.32,43.38-212.63,88.7-62.12,43.77-114.91,100.06-156.9,167.31-42,67.24-71.09,142.06-86.47,222.36-15.92,83.14-16.37,168.56-1.32,253.87s44.67,165.42,88.07,238.1c41.92,70.2,94.84,130.55,157.3,179.38,62.46,48.82,131.32,83.66,204.66,103.55,75.93,20.59,153.36,24.17,230.14,10.63,76.78-13.54,148.32-43.38,212.63-88.7,62.11-43.77,114.9-100.06,156.9-167.31,42-67.24,71.09-142.06,86.47-222.36,15.92-83.14,16.37-168.56,1.32-253.87-15.04-85.31-44.67-165.42-88.07-238.1Zm74.96,488.77c-15.06,78.63-43.55,151.89-84.67,217.74-41.13,65.85-92.82,120.97-153.64,163.83-62.97,44.37-133.02,73.59-208.21,86.85-75.19,13.26-151.01,9.76-225.35-10.4-71.81-19.47-139.24-53.59-200.41-101.4-61.17-47.81-113-106.91-154.04-175.65-42.49-71.17-71.5-149.61-86.23-233.15-14.73-83.54-14.3-167.18,1.29-248.58,15.06-78.63,43.55-151.89,84.67-217.74,41.13-65.85,92.82-120.97,153.64-163.83,62.97-44.37,133.02-73.59,208.21-86.85,75.19-13.26,151.01-9.76,225.35,10.4,71.81,19.47,139.24,53.59,200.41,101.4,61.17,47.81,113,106.91,154.04,175.65,42.49,71.17,71.5,149.61,86.23,233.15,14.73,83.54,14.3,167.18-1.29,248.58Z"/>
        <path class="cls-2" d="m1232.96,391.92c-32.32-76.41-78.59-145.04-137.52-203.97-58.93-58.93-127.55-105.2-203.97-137.52C812.36,16.97,728.32,0,641.7,0s-170.66,16.97-249.78,50.43c-76.41,32.32-145.04,78.59-203.97,137.52-58.93,58.93-105.2,127.55-137.52,203.97C16.97,471.03,0,555.07,0,641.7s16.97,170.66,50.43,249.78c32.32,76.41,78.59,145.04,137.52,203.97,58.93,58.93,127.55,105.2,203.97,137.52,79.12,33.46,163.15,50.43,249.78,50.43s170.66-16.97,249.78-50.43c76.41-32.32,145.04-78.59,203.97-137.52,58.93-58.93,105.2-127.55,137.52-203.97,33.46-79.12,50.43-163.15,50.43-249.78s-16.97-170.66-50.43-249.78Zm-12.29,494.36c-31.65,74.82-76.96,142.02-134.67,199.73-57.71,57.71-124.91,103.02-199.73,134.67-77.46,32.76-159.75,49.38-244.58,49.38s-167.12-16.61-244.58-49.38c-74.82-31.65-142.02-76.96-199.73-134.67-57.71-57.71-103.02-124.91-134.66-199.73-32.76-77.46-49.38-159.75-49.38-244.58s16.61-167.12,49.38-244.58c31.65-74.82,76.96-142.02,134.66-199.73,57.71-57.71,124.91-103.02,199.73-134.66,77.46-32.76,159.75-49.38,244.58-49.38s167.12,16.61,244.58,49.38c74.82,31.65,142.02,76.96,199.73,134.66,57.71,57.71,103.02,124.91,134.67,199.73,32.76,77.46,49.38,159.75,49.38,244.58s-16.61,167.12-49.38,244.58Z"/>
      </g>
    </g>
  </g>
</svg>