<?xml version="1.0" encoding="UTF-8"?>
<svg id="Layer_2" data-name="Layer 2" xmlns="http://www.w3.org/2000/svg" viewBox="0 0 1294.1 1293.35">
  <defs>
    <style>
      .cls-1 {
        fill: white;
      }
    </style>
  </defs>
  <g id="Layer_1-2" data-name="Layer 1">
    <path class="cls-1" d="m691.73,649.89c82.22-10.27,278.52-57.9,602.37-112.69-323.86,54.79-525.16,74.37-606.11,91.72,67.79-46.98,218.88-179.55,479.24-377.26-260.35,197.7-428.9,307.77-492.29,360.43,37.96-72.78,109.55-259.57,247.25-554.3-137.71,294.74-235.22,469.72-266.64,545.47-.44-81.75-24.45-279.6-40.42-603.26,15.98,323.67,11.54,523.09,19.16,604.44-38.62-71.86-152.4-235.06-317.91-512.92,165.5,277.85,254.83,455.67,299.63,523.84-67.83-45.35-245.01-136.16-521.62-303.96,276.61,167.8,438.94,282.93,510.52,322.14-81.37-8.31-281.05-5.56-604.9-24.28,323.86,18.72,521.68,44.4,603.51,45.54-76.14,30.78-252.26,126.83-548.66,262.07,296.4-135.24,484.09-205.25,557.31-242.61-53.35,62.96-165.25,230.68-365.79,489.48,200.54-258.79,334.78-408.83,382.49-476.26-18.21,80.88-39.94,282.2-98.18,605.86,58.25-323.68,107.97-519.73,119.11-601.93,21.22,80.4,94.95,269.58,192.86,584.56-97.9-314.96-144.4-512.48-172.49-590.79,55.92,61.66,208.54,195.72,440.66,430.42-232.12-234.71-364.49-388.82-425.52-445.41,77.93,28.93,274.78,77.53,588.45,178.8-313.66-101.26-501.9-177.02-582.01-199.1Z"/>
  </g>
</svg>